<svg width="110" height="149" viewBox="0 0 110 149" fill="none" xmlns="http://www.w3.org/2000/svg">
<path d="M74.5007 47.2026C87.9844 47.2026 98.915 36.636 98.915 23.6013C98.915 10.5667 87.9844 0 74.5007 0C61.0171 0 50.0865 10.5667 50.0865 23.6013C50.0865 36.636 61.0171 47.2026 74.5007 47.2026Z" fill="#F8B74F"/>
<path d="M36.5942 56.9908V75.6472C34.3329 74.9619 31.944 74.8194 29.6184 75.2311C27.2928 75.6427 25.0948 76.5971 23.2001 78.0179C21.3055 79.4388 19.7665 81.2868 18.7063 83.4142C17.646 85.5417 17.0939 87.8897 17.0939 90.2708C17.0939 92.6518 17.646 94.9998 18.7063 97.1273C19.7665 99.2547 21.3055 101.103 23.2001 102.524C25.0948 103.944 27.2928 104.899 29.6184 105.31C31.944 105.722 34.3329 105.58 36.5942 104.894V149H0V79.9227C0 73.8408 2.3959 68.008 6.66063 63.7074C10.9254 59.4069 16.7096 56.9908 22.7408 56.9908H36.5942Z" fill="#425ABC"/>
<path d="M44.5459 27.3561C44.5459 41.5099 39.0053 52.9816 32.1718 52.9816C25.3383 52.9816 19.8016 41.502 19.8016 27.3561C19.8016 13.2102 32.1718 1.73059 32.1718 1.73059C32.1718 1.73059 44.5459 13.2024 44.5459 27.3561Z" fill="#B0D45A"/>
<path d="M75.4753 57.7112C65.555 67.7344 53.5809 71.8807 48.7586 67.01C43.9363 62.1394 48.0558 50.0764 57.98 40.069C67.9041 30.0615 84.6966 30.7702 84.6966 30.7702C84.6966 30.7702 85.4188 47.7038 75.4753 57.7112Z" fill="#007B93"/>
<path d="M84.5879 101.692C70.5559 101.692 59.1758 96.1085 59.1758 89.2176C59.1758 82.3267 70.5559 76.7396 84.5879 76.7396C98.6199 76.7396 110 89.2137 110 89.2137C110 89.2137 98.6199 101.692 84.5879 101.692Z" fill="#FF7BAC"/>
<path d="M36.5942 70.1932C32.473 69.2815 28.1727 69.6818 24.2867 71.339C20.4007 72.9962 17.1203 75.8285 14.8982 79.4453C12.6761 83.0621 11.6217 87.2851 11.8805 91.5318C12.1393 95.7785 13.6986 99.8395 16.3431 103.155C18.9877 106.47 22.5873 108.876 26.6453 110.041C30.7033 111.206 35.0198 111.072 38.9993 109.658C42.9788 108.245 46.4252 105.62 48.8631 102.148C51.301 98.6753 52.6103 94.5254 52.6102 90.2708C52.6368 85.5774 51.0586 81.0183 48.1413 77.3612C45.224 73.7041 41.146 71.1727 36.5942 70.1932ZM36.5942 104.894C33.5458 105.82 30.2855 105.754 27.2767 104.705C24.2679 103.655 21.6636 101.676 19.834 99.049C18.0044 96.4216 17.0425 93.2796 17.0851 90.0694C17.1277 86.8593 18.1727 83.7443 20.0714 81.1673C21.9701 78.5903 24.626 76.6823 27.6616 75.7145C30.6972 74.7467 33.9581 74.7684 36.9808 75.7765C40.0035 76.7845 42.6342 78.7277 44.499 81.3297C46.3639 83.9317 47.368 87.0603 47.3686 90.2708C47.3881 93.5568 46.3477 96.7601 44.4043 99.3978C42.4608 102.036 39.7197 103.965 36.5942 104.894Z" fill="#F5D700" stroke="#F5D700" stroke-width="7" stroke-miterlimit="10"/>
</svg>
