<svg width="147" height="51" viewBox="0 0 147 51" fill="none" xmlns="http://www.w3.org/2000/svg">
<g clip-path="url(#clip0)">
<path d="M26.1116 22.4092C32.5697 22.4092 37.8051 17.526 37.8051 11.5023C37.8051 5.47851 32.5697 0.595306 26.1116 0.595306C19.6534 0.595306 14.4181 5.47851 14.4181 11.5023C14.4181 17.526 19.6534 22.4092 26.1116 22.4092Z" fill="#F8B74F"/>
<path d="M31.1873 34.4241C31.1066 34.6484 31.0213 34.8973 30.9337 35.1373C30.5465 35.1171 30.1592 35.1082 29.7697 35.1082C27.4797 35.0874 25.2046 35.4673 23.0528 36.2296C21.0065 36.9673 19.0356 37.8894 17.1657 38.9838C11.4975 42.3167 8.2382 46.6476 9.4737 49.8818C9.63959 50.3127 9.88054 50.7125 10.186 51.0638C9.87478 51.0839 9.56821 51.0884 9.26394 51.0817C9.06 50.7865 8.89286 50.4688 8.76605 50.1352C7.89244 47.8655 8.90435 45.0866 11.6174 42.3122C13.2899 40.6435 15.1948 39.2113 17.2763 38.0575C19.0369 37.0632 20.8815 36.2169 22.79 35.5276C25.5745 34.525 28.4765 34.2761 31.1873 34.4241Z" fill="white"/>
<path d="M17.5207 33.2847C17.5237 34.6336 17.4467 35.9816 17.2902 37.3219C15.2063 38.4779 13.2992 39.9123 11.6244 41.5833C8.91132 44.3577 7.89941 47.1365 8.77302 49.4085C8.89988 49.7414 9.06702 50.0584 9.27091 50.3528C9.56826 50.3528 9.87484 50.3528 10.1929 50.3371C10.4396 50.3236 10.6908 50.3034 10.9467 50.272C10.7604 50.3692 10.5679 50.4546 10.3704 50.5277C10.1133 50.6269 9.84697 50.702 9.57518 50.752C9.30639 50.8032 9.03309 50.8288 8.75919 50.8283C3.91859 50.8283 0 42.9783 0 33.3094C0 23.6405 8.74767 15.7704 8.74767 15.7704C8.74767 15.7704 14.856 21.2339 16.873 28.669C17.2941 30.1736 17.5118 31.7253 17.5207 33.2847Z" fill="#007C92"/>
<path d="M32.7593 27.3031C32.5169 29.7274 31.9894 32.1167 31.1873 34.4241C28.4765 34.2761 25.5699 34.525 22.79 35.5343C20.8817 36.2214 19.0372 37.0655 17.2763 38.0575C15.198 39.2083 13.2955 40.6367 11.6243 42.301C8.91127 45.0754 7.89935 47.8632 8.77297 50.124C8.89978 50.4576 9.06692 50.7753 9.27086 51.0705C7.27007 51.0234 5.64732 50.42 4.66076 49.2067C1.63192 45.5284 5.47213 37.6448 13.2332 31.5981C14.3582 30.7272 15.5844 29.988 16.8867 29.3956C24.2099 26.0291 32.7593 27.3031 32.7593 27.3031Z" fill="#D0596D" stroke="white" stroke-width="4" stroke-miterlimit="10"/>
<path d="M30.558 34.9557C29.3133 38.3199 27.2387 42.0565 23.8111 44.73C19.2886 48.2535 14.4296 50.3775 10.5663 50.8081C10.3105 50.8395 10.0592 50.8597 9.81256 50.8709C9.50714 50.5196 9.26619 50.1198 9.1003 49.6889C7.86249 46.4659 11.1241 42.1328 16.7899 38.7909C18.6609 37.6962 20.6325 36.7734 22.6793 36.0345C24.8316 35.2779 27.1057 34.9027 29.394 34.9265C29.7858 34.9265 30.1846 34.9355 30.558 34.9557Z" fill="#D0596D"/>
<path d="M54.6297 18.6255C53.0241 18.6581 51.4356 18.3004 50.008 17.5848C48.6888 16.898 47.6227 15.8278 46.9585 14.5233C46.2485 13.1776 45.915 11.5187 45.9581 9.54645C46.0011 7.57424 46.4045 5.88912 47.1682 4.49108C47.8851 3.17518 49.0193 2.11955 50.4022 1.48119C51.9032 0.827937 53.5343 0.506236 55.1783 0.539195C57.6508 0.539195 59.5656 1.02066 60.9225 1.98359C62.2794 2.94651 63.1829 4.47165 63.6332 6.55898L60.4707 6.97615C60.148 5.57512 59.4864 4.65406 58.486 4.21297C57.4448 3.76499 56.3167 3.54011 55.1783 3.55358C53.1129 3.55358 51.6016 4.05597 50.6442 5.06077C49.6869 6.06556 49.1974 7.47855 49.1759 9.29974C49.1759 11.3093 49.7245 12.8531 50.8217 13.9312C51.9189 15.0093 53.4917 15.5483 55.5402 15.5483C56.7291 15.5636 57.9 15.2652 58.9286 14.6848C59.9413 14.1091 60.5974 13.1828 60.8971 11.9059H56.8886V9.55094H63.9882V18.2801H61.7638L61.0216 15.2029H60.957C60.6962 15.7927 60.3178 16.3263 59.8437 16.7729C59.2473 17.34 58.5425 17.7881 57.7691 18.0917C56.7702 18.4733 55.7024 18.6549 54.6297 18.6255Z" fill="black"/>
<path d="M75.9606 18.6255C73.0332 18.6255 70.7958 17.8091 69.2483 16.1763C67.7008 14.5436 66.9263 12.3142 66.9248 9.48819C66.9248 7.62513 67.2583 6.00804 67.9252 4.63692C68.5471 3.31048 69.61 2.2265 70.9425 1.55974C72.2856 0.87941 73.9583 0.539246 75.9606 0.539246C78.9295 0.539246 81.1777 1.32947 82.7052 2.90993C84.2327 4.49039 84.9964 6.68314 84.9964 9.48819C85.0304 11.1501 84.6774 12.7979 83.9637 14.3081C83.318 15.6556 82.258 16.7747 80.9303 17.5108C79.5964 18.254 77.9399 18.6255 75.9606 18.6255ZM75.9283 15.5483C77.8646 15.5483 79.3244 14.9779 80.3079 13.8371C81.2914 12.6962 81.7809 11.2466 81.7763 9.48819C81.7944 8.39299 81.5728 7.30657 81.1262 6.30111C80.7392 5.41778 80.0569 4.68752 79.19 4.22872C78.3279 3.78015 77.2414 3.55587 75.9306 3.55587C74.0359 3.55587 72.5945 4.0792 71.6064 5.12586C70.6183 6.17252 70.1227 7.62663 70.1196 9.48819C70.105 10.5612 70.3209 11.6254 70.7535 12.6125C71.1448 13.5123 71.8164 14.2701 72.6736 14.7791C73.5311 15.2934 74.616 15.5498 75.9283 15.5483Z" fill="black"/>
<path d="M96.4202 18.6255C94.8116 18.6599 93.2196 18.3021 91.7894 17.5848C90.4683 16.9003 89.3997 15.8316 88.7329 14.5278C88.0229 13.1821 87.6895 11.5231 87.7325 9.55092C87.7755 7.57872 88.1789 5.89359 88.9427 4.49555C89.661 3.17486 90.8008 2.11697 92.1905 1.48117C93.6922 0.827595 95.3241 0.505887 96.9688 0.539179C99.4414 0.539179 101.356 1.02064 102.713 1.98357C104.07 2.9465 104.973 4.47163 105.424 6.55897L102.261 6.97614C101.939 5.57511 101.277 4.65405 100.277 4.21295C99.2352 3.76525 98.1072 3.54038 96.9688 3.55356C94.9035 3.55356 93.3922 4.05596 92.4348 5.06075C91.4774 6.06554 90.988 7.47854 90.9665 9.29972C90.9665 11.3093 91.5151 12.8531 92.6123 13.9312C93.7095 15.0093 95.28 15.5483 97.3238 15.5483C98.5151 15.5648 99.6886 15.2664 100.719 14.6848C101.729 14.1091 102.385 13.1828 102.688 11.9059H98.6792V9.55092H105.79V18.2801H103.564L102.821 15.2029H102.757C102.494 15.7917 102.116 16.325 101.643 16.7729C101.047 17.34 100.342 17.7881 99.5689 18.0917C98.5671 18.4743 97.496 18.6558 96.4202 18.6255Z" fill="black"/>
<path d="M117.749 18.6255C114.829 18.6255 112.592 17.8091 111.037 16.1763C109.481 14.5436 108.707 12.3142 108.713 9.48819C108.713 7.62513 109.047 6.00804 109.716 4.63692C110.338 3.31048 111.401 2.2265 112.733 1.55974C114.078 0.87941 115.75 0.539246 117.749 0.539246C120.718 0.539246 122.967 1.32947 124.496 2.90993C126.025 4.49039 126.788 6.68314 126.785 9.48819C126.819 11.1499 126.467 12.7977 125.754 14.3081C125.109 15.6556 124.049 16.7747 122.721 17.5108C121.385 18.254 119.728 18.6255 117.749 18.6255ZM117.719 15.5483C119.655 15.5483 121.115 14.9779 122.099 13.8371C123.082 12.6962 123.571 11.2466 123.567 9.48819C123.587 8.39347 123.368 7.30707 122.924 6.30111C122.536 5.41743 121.853 4.68712 120.985 4.22872C120.125 3.78015 119.039 3.55587 117.728 3.55587C115.833 3.55587 114.392 4.0792 113.404 5.12586C112.416 6.17252 111.917 7.62663 111.908 9.48819C111.893 10.561 112.108 11.6252 112.539 12.6125C112.93 13.5127 113.602 14.2707 114.46 14.7791C115.319 15.2934 116.405 15.5498 117.719 15.5483Z" fill="black"/>
<path d="M143.146 0.602051H146.569V18.2801H140.308L134.085 2.01504H134.023V18.2801H130.634V0.602051H136.447L143.084 16.8671H143.146V0.602051Z" fill="black"/>
<path d="M54.9846 49.9939C53.3864 50.0151 51.806 49.6653 50.3745 48.9734C49.0018 48.2966 47.863 47.2432 47.0991 45.9433C46.2923 44.5976 45.8889 42.923 45.8889 40.9194C45.9089 38.9531 46.3177 37.2785 47.1152 35.8954C47.8423 34.5773 48.9847 33.5207 50.3745 32.881C51.852 32.2329 53.4587 31.9112 55.0791 31.939C56.7572 31.939 58.1879 32.1902 59.3711 32.6926C60.5216 33.1707 61.5105 33.9541 62.2248 34.9534C62.9716 36.0204 63.4523 37.2423 63.6286 38.5218H60.2402C60.0865 37.4841 59.7369 36.6976 59.1914 36.1623C58.6719 35.6443 58.0018 35.2937 57.2712 35.1575C56.5481 35.0219 55.8133 34.9535 55.0768 34.9534C53.1606 34.9534 51.6923 35.4349 50.6719 36.3978C49.6515 37.3607 49.1406 38.7947 49.139 40.6996C49.139 42.7301 49.6392 44.2896 50.6396 45.3781C51.64 46.4667 53.0999 47.0109 55.0192 47.0109C55.8086 47.0126 56.5931 46.8907 57.3427 46.6498C58.0816 46.4182 58.7479 46.0076 59.2789 45.4566C59.841 44.853 60.2011 44.0974 60.3116 43.2901H63.7323C63.5074 44.5071 63.0178 45.6633 62.2963 46.6812C61.5546 47.7138 60.5551 48.5458 59.3919 49.099C58.1764 49.6956 56.7073 49.9939 54.9846 49.9939Z" fill="black"/>
<path d="M72.1527 49.6799H68.8288V32.0018H72.1527V39.4436H80.7689V32.0018H84.0605V49.6799H80.7689V41.9242H72.1527V49.6799Z" fill="black"/>
<path d="M88.8043 49.6799L94.6131 32.0018H100.002L105.972 49.6799H102.455L100.906 44.6874H93.8386L92.2896 49.6799H88.8043ZM97.3561 33.352L94.6131 42.2068H100.131L97.3561 33.352Z" fill="black"/>
<path d="M110.523 49.6799V32.0018H117.207C119.551 32.0018 121.379 32.3839 122.693 33.1479C124.007 33.912 124.663 35.2577 124.662 37.185C124.662 38.6294 124.307 39.7965 123.597 40.6861C122.887 41.5758 121.865 42.0206 120.531 42.0206C121.283 42.0206 121.847 42.1828 122.225 42.5073C122.6 42.8305 122.874 43.2493 123.016 43.7162C123.168 44.2085 123.276 44.7128 123.339 45.2234C123.39 45.6928 123.467 46.1592 123.569 46.6207C123.599 46.796 123.666 46.9634 123.766 47.1121C123.866 47.2608 123.997 47.3875 124.15 47.4842C124.44 47.6531 124.901 47.6217 125.533 47.39V49.2426C125.114 49.5807 124.615 49.812 124.081 49.9154C123.533 50.0309 122.962 49.9928 122.435 49.8055C121.866 49.5918 121.388 49.1964 121.08 48.6841C120.714 48.1309 120.531 47.3511 120.531 46.3448C120.545 45.6037 120.491 44.8629 120.37 44.1311C120.33 43.8793 120.239 43.6379 120.1 43.4219C119.961 43.2059 119.778 43.0198 119.563 42.8751C119.131 42.5925 118.464 42.4251 117.562 42.3727C116.66 42.3204 115.412 42.2942 113.819 42.2942V49.6732L110.523 49.6799ZM113.814 40.0357H117.085C117.959 40.046 118.832 39.9988 119.699 39.8944C120.278 39.8501 120.822 39.605 121.232 39.2036C121.564 38.838 121.732 38.2459 121.732 37.4295C121.732 36.5324 121.527 35.8797 121.119 35.4827C120.711 35.0857 120.112 34.839 119.328 34.7448C118.369 34.6418 117.404 34.5946 116.44 34.6035H113.814V40.0357Z" fill="black"/>
<path d="M129.82 49.6799L135.629 32.0018H141.018L146.988 49.6799H143.471L141.922 44.6874H134.855L133.306 49.6799H129.82ZM138.372 33.352L135.629 42.2068H141.147L138.372 33.352Z" fill="black"/>
</g>
<defs>
<clipPath id="clip0">
<rect width="147" height="51" fill="white"/>
</clipPath>
</defs>
</svg>
