<svg width="33" height="32" viewBox="0 0 33 32" fill="none" xmlns="http://www.w3.org/2000/svg">
<path d="M16.3942 10.6644C13.4792 10.6644 11.1003 13.062 11.1003 16C11.1003 18.938 13.4792 21.3356 16.3942 21.3356C19.3091 21.3356 21.688 18.938 21.688 16C21.688 13.062 19.3091 10.6644 16.3942 10.6644ZM32.2717 16C32.2717 13.7905 32.2915 11.601 32.1684 9.39554C32.0453 6.83381 31.4655 4.56027 29.6069 2.68701C27.7443 0.809737 25.4926 0.229345 22.9509 0.105261C20.7587 -0.018823 18.5864 0.00119058 16.3981 0.00119058C14.206 0.00119058 12.0336 -0.018823 9.8454 0.105261C7.30373 0.229345 5.048 0.813739 3.1894 2.68701C1.32683 4.56427 0.750986 6.83381 0.627874 9.39554C0.504762 11.605 0.524619 13.7945 0.524619 16C0.524619 18.2055 0.504762 20.399 0.627874 22.6045C0.750986 25.1662 1.3308 27.4397 3.1894 29.313C5.05197 31.1903 7.30373 31.7707 9.8454 31.8947C12.0376 32.0188 14.2099 31.9988 16.3981 31.9988C18.5903 31.9988 20.7627 32.0188 22.9509 31.8947C25.4926 31.7707 27.7483 31.1863 29.6069 29.313C31.4695 27.4357 32.0453 25.1662 32.1684 22.6045C32.2955 20.399 32.2717 18.2095 32.2717 16ZM16.3942 24.2095C11.8867 24.2095 8.24891 20.5431 8.24891 16C8.24891 11.4569 11.8867 7.79045 16.3942 7.79045C20.9017 7.79045 24.5394 11.4569 24.5394 16C24.5394 20.5431 20.9017 24.2095 16.3942 24.2095ZM24.873 9.37152C23.8206 9.37152 22.9707 8.51494 22.9707 7.45423C22.9707 6.39351 23.8206 5.53693 24.873 5.53693C25.9254 5.53693 26.7753 6.39351 26.7753 7.45423C26.7756 7.7061 26.7266 7.95556 26.6311 8.18832C26.5357 8.42108 26.3955 8.63256 26.2188 8.81066C26.0421 8.98876 25.8323 9.12998 25.6014 9.22622C25.3704 9.32246 25.1229 9.37184 24.873 9.37152Z" fill="#41EAD4"/>
</svg>
