<svg width="143" height="173" viewBox="0 0 143 173" fill="none" xmlns="http://www.w3.org/2000/svg">
<path d="M72.4626 158.014C72.4635 159.974 72.2985 161.93 71.9694 163.861H57.4041L57.0277 158.129C57.2247 156.71 57.4978 155.303 57.8455 153.914C56.8613 148.45 53.9088 143.558 49.5674 140.198C45.226 136.838 39.8091 135.253 34.3797 135.753C28.9503 136.254 23.9004 138.803 20.2209 142.902C16.5414 147.001 14.498 152.353 14.4917 157.909C14.4917 157.984 14.4917 158.054 14.4917 158.129H0V158.014C0 138.481 16.2225 122.607 36.2313 122.607C41.9994 122.568 47.6953 123.916 52.8556 126.542C58.016 129.169 62.4951 132.999 65.9286 137.722C70.1743 143.603 72.4638 150.713 72.4626 158.014Z" fill="#007B93"/>
<path d="M58.196 157.909C58.196 157.984 58.196 158.054 58.196 158.129C58.1809 160.067 57.9161 161.994 57.4085 163.861L57.032 158.129C57.2291 156.71 57.5021 155.303 57.8498 153.914C58.0817 155.232 58.1975 156.569 58.196 157.909Z" fill="white" stroke="white" stroke-width="3" stroke-miterlimit="10"/>
<path d="M60.3077 53.6272C75.3349 53.6272 87.5169 41.7271 87.5169 27.0475C87.5169 12.3679 75.3349 0.467773 60.3077 0.467773C45.2804 0.467773 33.0985 12.3679 33.0985 27.0475C33.0985 41.7271 45.2804 53.6272 60.3077 53.6272Z" fill="#F8B74F"/>
<path d="M99.7368 64.8445C84.7086 64.8445 72.5276 76.7498 72.5276 91.4241C72.5276 106.098 84.7086 118.004 99.7368 118.004C114.765 118.004 126.946 106.098 126.946 91.4241C126.946 76.7498 114.765 64.8445 99.7368 64.8445ZM99.9531 108.524C96.6154 108.524 93.3526 107.515 90.5774 105.626C87.8021 103.736 85.6391 101.05 84.3618 97.908C83.0845 94.7657 82.7503 91.3081 83.4015 87.9723C84.0526 84.6365 85.6599 81.5723 88.0201 79.1673C90.3802 76.7624 93.3872 75.1246 96.6608 74.461C99.9344 73.7975 103.328 74.138 106.411 75.4396C109.495 76.7412 112.131 78.9453 113.985 81.7733C115.839 84.6012 116.829 87.926 116.829 91.3271C116.829 95.8872 115.052 100.261 111.888 103.485C108.724 106.71 104.432 108.522 99.9575 108.524H99.9531Z" fill="#F5D700" stroke="#F5D700" stroke-width="7" stroke-miterlimit="10"/>
<path d="M36.2313 74.792C23.6047 74.792 13.3623 84.7924 13.3623 97.1298C13.3623 109.467 23.6047 119.472 36.2313 119.472C48.858 119.472 59.1004 109.467 59.1004 97.1298C59.1004 84.7924 48.8623 74.792 36.2313 74.792ZM36.3438 111.169C33.6052 111.169 30.928 110.342 28.6509 108.791C26.3738 107.241 24.599 105.037 23.551 102.459C22.5029 99.8806 22.2287 97.0436 22.763 94.3065C23.2973 91.5695 24.6161 89.0553 26.5526 87.082C28.4891 85.1087 30.9564 83.7649 33.6424 83.2204C36.3285 82.676 39.1126 82.9554 41.6428 84.0234C44.173 85.0913 46.3356 86.8998 47.8571 89.2202C49.3787 91.5406 50.1908 94.2686 50.1908 97.0593C50.1908 100.801 48.7325 104.389 46.1366 107.035C43.5408 109.681 40.0199 111.168 36.3482 111.169H36.3438Z" fill="#FF7BAC" stroke="#FF7BAC" stroke-width="7" stroke-miterlimit="10"/>
<path d="M126.838 163.861V163.72C126.748 156.493 123.867 149.593 118.82 144.515C113.773 139.437 106.966 136.589 99.873 136.589C92.7802 136.589 85.9728 139.437 80.9257 144.515C75.8786 149.593 72.9982 156.493 72.9083 163.72V163.861H57.4041L57.0276 158.129C57.2247 156.71 57.4978 155.303 57.8455 153.914C59.3255 147.976 62.087 142.449 65.9286 137.736C70.0592 132.697 75.232 128.651 81.0768 125.887C86.9216 123.124 93.2936 121.712 99.7367 121.752C123.536 121.752 142.848 140.606 142.848 163.861H126.838Z" fill="#80C7A7"/>
</svg>
