<svg width="143" height="138" viewBox="0 0 143 138" fill="none" xmlns="http://www.w3.org/2000/svg">
<path d="M72.4626 125.816C72.4635 127.375 72.2985 128.931 71.9694 130.468H57.4041L57.0277 125.907C57.2247 124.778 57.4978 123.658 57.8455 122.553C56.8613 118.206 53.9088 114.314 49.5674 111.641C45.226 108.968 39.8091 107.706 34.3797 108.104C28.9503 108.502 23.9004 110.531 20.2209 113.792C16.5414 117.053 14.498 121.312 14.4917 125.731C14.4917 125.791 14.4917 125.847 14.4917 125.907H0V125.816C0 110.274 16.2225 97.6448 36.2313 97.6448C41.9994 97.6133 47.6953 98.6861 52.8556 100.776C58.016 102.865 62.4951 105.913 65.9286 109.671C70.1743 114.35 72.4638 120.007 72.4626 125.816V125.816Z" fill="#007B93"/>
<path d="M58.196 125.732C58.196 125.791 58.196 125.848 58.196 125.907C58.1809 127.449 57.9161 128.982 57.4085 130.468L57.032 125.907C57.2291 124.778 57.5021 123.658 57.8498 122.553C58.0817 123.602 58.1975 124.666 58.196 125.732V125.732Z" fill="white" stroke="white" stroke-width="3" stroke-miterlimit="10"/>
<path d="M60.3077 42.7626C75.3349 42.7626 87.5169 33.2946 87.5169 21.6152C87.5169 9.9358 75.3349 0.467773 60.3077 0.467773C45.2804 0.467773 33.0985 9.9358 33.0985 21.6152C33.0985 33.2946 45.2804 42.7626 60.3077 42.7626Z" fill="#F8B74F"/>
<path d="M99.7368 51.6876C84.7086 51.6876 72.5276 61.1597 72.5276 72.835C72.5276 84.5103 84.7086 93.9824 99.7368 93.9824C114.765 93.9824 126.946 84.5103 126.946 72.835C126.946 61.1597 114.765 51.6876 99.7368 51.6876ZM99.9531 86.4398C96.6154 86.4398 93.3526 85.6374 90.5774 84.134C87.8021 82.6306 85.6391 80.4937 84.3618 77.9937C83.0845 75.4936 82.7503 72.7427 83.4015 70.0886C84.0526 67.4346 85.6599 64.9967 88.0201 63.0832C90.3802 61.1698 93.3872 59.8667 96.6608 59.3388C99.9344 58.8109 103.328 59.0818 106.411 60.1174C109.495 61.1529 112.131 62.9066 113.985 65.1565C115.839 67.4065 116.829 70.0518 116.829 72.7578C116.829 76.3859 115.052 79.8654 111.888 82.4312C108.724 84.997 104.432 86.4389 99.9575 86.4398H99.9531Z" fill="#F5D700" stroke="#F5D700" stroke-width="7" stroke-miterlimit="10"/>
<path d="M36.2313 59.6017C23.6047 59.6017 13.3623 67.5583 13.3623 77.3742C13.3623 87.1901 23.6047 95.1502 36.2313 95.1502C48.858 95.1502 59.1004 87.1901 59.1004 77.3742C59.1004 67.5583 48.8623 59.6017 36.2313 59.6017ZM36.3438 88.5443C33.6052 88.5443 30.928 87.8859 28.6509 86.6523C26.3738 85.4188 24.599 83.6655 23.551 81.6141C22.5029 79.5628 22.2287 77.3056 22.763 75.1279C23.2973 72.9503 24.6161 70.9499 26.5526 69.3799C28.4891 67.8099 30.9564 66.7407 33.6424 66.3075C36.3285 65.8744 39.1126 66.0967 41.6428 66.9464C44.173 67.7961 46.3356 69.235 47.8571 71.0811C49.3787 72.9272 50.1908 75.0977 50.1908 77.318C50.1908 80.2948 48.7325 83.1497 46.1366 85.2549C43.5408 87.3602 40.0199 88.5433 36.3482 88.5443H36.3438Z" fill="#FF7BAC" stroke="#FF7BAC" stroke-width="7" stroke-miterlimit="10"/>
<path d="M126.838 130.467V130.355C126.748 124.605 123.867 119.115 118.82 115.075C113.773 111.035 106.966 108.769 99.873 108.769C92.7802 108.769 85.9728 111.035 80.9257 115.075C75.8786 119.115 72.9982 124.605 72.9083 130.355V130.467H57.4041L57.0276 125.907C57.2247 124.777 57.4978 123.658 57.8455 122.553C59.3255 117.828 62.087 113.431 65.9286 109.681C70.0592 105.672 75.232 102.453 81.0768 100.254C86.9216 98.0559 93.2936 96.9323 99.7367 96.9641C123.536 96.9641 142.848 111.965 142.848 130.467H126.838Z" fill="#80C7A7"/>
</svg>
