<svg width="156" height="149" viewBox="0 0 156 149" fill="none" xmlns="http://www.w3.org/2000/svg">
<g clip-path="url(#clip0)">
<path d="M43.6006 54.1786C59.2297 54.1786 71.8996 42.0503 71.8996 27.0893C71.8996 12.1283 59.2297 0 43.6006 0C27.9715 0 15.3016 12.1283 15.3016 27.0893C15.3016 42.0503 27.9715 54.1786 43.6006 54.1786Z" fill="#F8B74F"/>
<path d="M112.458 54.1786C128.087 54.1786 140.757 42.0503 140.757 27.0893C140.757 12.1283 128.087 0 112.458 0C96.8288 0 84.1589 12.1283 84.1589 27.0893C84.1589 42.0503 96.8288 54.1786 112.458 54.1786Z" fill="#F8B74F"/>
<path d="M156 105.126V105.045C155.883 93.5827 151.241 82.6293 143.083 74.5651C134.924 66.5008 123.908 61.9772 112.429 61.9772C100.949 61.9772 89.933 66.5008 81.7744 74.5651C73.6159 82.6293 68.974 93.5827 68.8573 105.045V105.126H86.8592C86.8629 104.152 86.926 103.18 87.0482 102.214C88.5874 90.1792 99.2985 80.8588 112.287 80.8588C126.301 80.8588 137.674 91.7161 137.715 105.126H156Z" fill="#80C7A7"/>
<path d="M87.0347 108.078C87.0347 108.101 87.0347 108.128 87.0347 108.15C86.4371 116.726 83.2941 124.928 78.0068 131.712C77.9528 131.784 77.8942 131.856 77.8312 131.928C72.2528 139.02 64.6051 144.205 55.9462 146.767C47.2872 149.329 38.0449 149.141 29.4977 146.229C20.9505 143.317 13.5207 137.824 8.23623 130.512C2.95172 123.199 0.0736144 114.427 1.92488e-05 105.409C-0.00448233 105.361 -0.00448233 105.313 1.92488e-05 105.265C1.92488e-05 105.22 1.92488e-05 105.171 1.92488e-05 105.126H18.0019V105.337C17.9997 105.361 17.9997 105.385 18.0019 105.409C18.1189 118.752 29.4556 129.537 43.4251 129.537C57.3946 129.537 68.7313 118.752 68.8483 105.409C68.8505 105.385 68.8505 105.361 68.8483 105.337V105.126H86.8502V105.337C86.848 105.361 86.848 105.385 86.8502 105.409C86.8502 105.557 86.8502 105.706 86.8502 105.858C86.8479 105.888 86.8479 105.918 86.8502 105.948C86.8907 106.663 86.9492 107.373 87.0347 108.078Z" fill="#007B93"/>
<path d="M87.0347 102.461C86.9717 102.991 86.9222 103.522 86.8907 104.061C86.8907 104.227 86.8907 104.398 86.8907 104.569V104.708C86.8907 104.856 86.8907 105 86.8907 105.157V105.441C86.8885 105.484 86.8885 105.527 86.8907 105.571C86.8907 105.719 86.8907 105.872 86.8907 106.02C86.8907 106.169 86.8907 106.213 86.8907 106.308C86.8907 106.402 86.8907 106.618 86.9132 106.757C86.9447 107.207 86.9852 107.701 87.0437 108.168C87.0437 108.168 87.0437 108.281 87.0437 108.335C87.1067 107.4 87.1382 106.456 87.1382 105.503V105.423C87.1412 104.422 87.1067 103.435 87.0347 102.461Z" fill="#80C7A7"/>
<path d="M156 105.409V105.49C156.001 114.561 153.162 123.406 147.881 130.787C142.599 138.168 135.139 143.716 126.544 146.655C117.949 149.593 108.65 149.775 99.9458 147.176C91.242 144.576 83.5698 139.325 78.0023 132.157L77.8268 131.928C71.994 124.347 68.84 115.05 68.8573 105.49V105.409H86.8592C86.857 105.453 86.857 105.496 86.8592 105.539C86.8592 105.688 86.8592 105.841 86.8592 105.989C86.8592 106.137 86.8592 106.182 86.8592 106.276V106.479C86.8592 106.564 86.8592 106.649 86.8592 106.739C86.8907 107.189 86.9312 107.683 86.9897 108.15C86.9897 108.15 86.9897 108.263 86.9897 108.317C88.5289 120.351 99.24 129.672 112.228 129.672C126.243 129.672 137.616 118.814 137.656 105.405L156 105.409Z" fill="#F5D700"/>
<path d="M87.0347 102.461C86.9492 103.167 86.8907 103.877 86.8682 104.6V104.69C86.8682 104.861 86.8682 105.032 86.8682 105.202V105.414H68.8573V105.202C68.7763 91.824 57.4216 81.0027 43.4296 81.0027C29.4376 81.0027 18.0829 91.8195 18.0019 105.198V105.409H8.76957e-06C8.76957e-06 105.36 8.76957e-06 105.315 8.76957e-06 105.265C-0.00447883 105.219 -0.00447883 105.172 8.76957e-06 105.126C0.0768547 96.111 2.95653 87.3424 8.24092 80.0326C13.5253 72.7228 20.9534 67.2328 29.4982 64.3215C38.0431 61.4103 47.2826 61.2216 55.9395 63.7817C64.5964 66.3417 72.243 71.5239 77.8222 78.6119C77.8852 78.6839 77.9438 78.7558 77.9978 78.8277C83.2851 85.6111 86.4281 93.814 87.0257 102.389C87.0257 102.389 87.0347 102.434 87.0347 102.461Z" fill="#FF7BAC"/>
</g>
<defs>
<clipPath id="clip0">
<rect width="156" height="149" fill="white"/>
</clipPath>
</defs>
</svg>
