<svg width="32" height="32" viewBox="0 0 32 32" fill="none" xmlns="http://www.w3.org/2000/svg">
<path d="M15.9141 0C7.14738 0 0.0390625 7.16429 0.0390625 16C0.0390625 24.8357 7.14738 32 15.9141 32C24.6807 32 31.7891 24.8357 31.7891 16C31.7891 7.16429 24.6807 0 15.9141 0ZM23.5433 12.0607C23.5539 12.2286 23.5539 12.4036 23.5539 12.575C23.5539 17.8179 19.5922 23.8571 12.3528 23.8571C10.1204 23.8571 8.05098 23.2036 6.30756 22.0786C6.62648 22.1143 6.93122 22.1286 7.25723 22.1286C9.09986 22.1286 10.7937 21.5 12.1438 20.4357C10.4145 20.4 8.96166 19.2571 8.46557 17.6857C9.07151 17.775 9.61722 17.775 10.2409 17.6143C9.35048 17.432 8.55017 16.9446 7.97591 16.2349C7.40165 15.5253 7.08886 14.6372 7.09068 13.7214V13.6714C7.61158 13.9679 8.22461 14.15 8.86599 14.175C8.32681 13.8128 7.88464 13.3222 7.57866 12.7465C7.27269 12.1709 7.11238 11.528 7.11194 10.875C7.11194 10.1357 7.30329 9.46071 7.64701 8.875C8.63531 10.1012 9.86856 11.1041 11.2666 11.8184C12.6646 12.5328 14.1962 12.9427 15.7617 13.0214C15.2054 10.325 17.2039 8.14286 19.6064 8.14286C20.7403 8.14286 21.7609 8.62143 22.4802 9.39286C23.3696 9.225 24.2201 8.88929 24.9784 8.43929C24.6843 9.35714 24.0677 10.1321 23.2492 10.6214C24.0429 10.5357 24.8083 10.3143 25.517 10.0036C24.9819 10.7964 24.3122 11.5 23.5433 12.0607Z" fill="#41EAD4"/>
</svg>
